#tb 0: 1/1000
0,          0,          0,        0,    67200, 0819e6d715c9b4d94f05f63a7ca86199
0,         33,         33,        0,    67200, 9b9a4b01ed4c8a93687e45245b3092a3
0,         66,         66,        0,    67200, 3a076f5b8dba60552e84a391ee04d1c7
0,        100,        100,        0,    67200, 7aafc561f5b96e9d286bd8deb5687774
0,        133,        133,        0,    67200, daa43a89ab6b2761eedaa183e33a3465
0,        166,        166,        0,    67200, c14874409872357b11b65f35a283e058
0,        200,        200,        0,    67200, 37d2ef52a9c694b2596d58ed9ca0d90b
0,        233,        233,        0,    67200, c97bc860c006896d80f52ccc0759f472
0,        266,        266,        0,    67200, 5f8618114a723a017e39a1af695996f3
0,        300,        300,        0,    67200, ee8234fc5ccd41d05eb87e1510f9795e
